<?xml version="1.0" encoding="UTF-8" standalone="no"?>
<svg width="552px" height="642px" viewBox="0 0 552 642" version="1.1" xmlns="http://www.w3.org/2000/svg" xmlns:xlink="http://www.w3.org/1999/xlink">
    <!-- Generator: Sketch 39.1 (31720) - http://www.bohemiancoding.com/sketch -->
    <title>CH_Logo</title>
    <desc>Created with Sketch.</desc>
    <defs></defs>
    <g id="Page-1" stroke="none" stroke-width="1" fill="none" fill-rule="evenodd">
        <g id="CH_Logo" transform="translate(2.000000, 2.000000)">
            <path d="M229.005032,266.057713 C230.55877,250.849721 232.871379,236.140091 235.942871,221.928711 C242.158722,193.168802 253.198651,169.187108 269.062988,149.98291 C284.927325,130.778713 306.496934,121.176758 333.772461,121.176758 C351.58505,121.176758 369.211827,126.835881 386.65332,138.154297 C398.899475,146.132852 408.547816,155.549262 415.598633,166.403809 C422.649449,177.258355 427.891096,189.504326 431.32373,203.14209 C434.756365,216.779853 437.400381,233.710836 439.255859,253.935547 L452.336914,253.935547 C452.336914,185.839503 453.079094,138.339978 454.563477,111.435547 L441.482422,111.435547 C439.626944,134.072379 434.802773,145.390625 427.009766,145.390625 C423.855453,145.390625 420.144553,143.72072 415.876953,140.380859 C400.662033,128.691348 385.029865,119.599642 368.97998,113.105469 C352.930096,106.611296 333.587027,103.364258 310.950195,103.364258 C269.016392,103.364258 231.768229,112.270419 199.20459,130.083008 C179.319606,140.960264 162.098562,154.535771 147.541284,170.809702 L229.005032,266.057713 Z M406.795718,473.931884 C410.079208,470.32404 413.013508,466.479237 415.598633,462.397461 C422.649449,451.264593 427.891096,438.230055 431.32373,423.293457 C434.756365,408.356859 437.400381,389.570426 439.255859,366.933594 L452.336914,366.933594 C452.336914,437.627307 453.079094,486.982282 454.563477,515 L441.920469,515 L441.437667,514.435504 C440.505804,502.852615 438.989976,494.45932 436.890137,489.255371 C434.756337,483.967259 431.648458,481.323242 427.566406,481.323242 C424.770007,481.323242 421.150521,482.722556 416.707851,485.521223 L406.795718,473.931884 Z" id="Combined-Shape" fill="#4A4A4A"></path>
            <path d="M194.086182,224.270508 C192.441484,240.083931 191.619141,256.437405 191.619141,273.331055 C191.619141,306.173016 194.72702,336.973489 200.942871,365.733398 C207.158722,394.493308 218.198651,418.475002 234.062988,437.679199 C249.927325,456.883397 271.496934,466.485352 298.772461,466.485352 C316.58505,466.485352 334.211827,460.826228 351.65332,449.507812 C359.586961,444.579339 366.430283,438.911105 372.183364,432.503037 L382.20016,444.214748 C381.767132,444.481059 381.326063,444.761039 380.876953,445.054688 C369.558537,453.033243 359.12163,459.573705 349.565918,464.67627 C340.010206,469.778834 329.109436,473.953597 316.863281,477.200684 C304.617126,480.44777 290.794022,482.071289 275.393555,482.071289 C232.346464,482.071289 194.680825,473.907308 162.395508,457.579102 C130.11019,441.250895 105.061612,417.547519 87.2490234,386.468262 C69.4364344,355.389005 60.5302734,318.41916 60.5302734,275.557617 C60.5302734,233.623814 69.6683656,196.51481 87.9448242,164.229492 C95.1593135,151.485115 103.486868,139.868377 112.927534,129.379232 L194.086182,224.270508 Z M407.6749,474 L406.482422,474 C406.441804,473.480093 406.400031,472.9665 406.357101,472.45922 L407.6749,474 Z" id="Combined-Shape" fill="#4A4A4A"></path>
            <path d="M0.926709383,0.798260357 L547.987128,637.828039" id="Path-4" stroke="#4A4A4A" stroke-width="4" stroke-linecap="round" stroke-linejoin="round"></path>
        </g>
    </g>
</svg>