<?xml version="1.0" encoding="UTF-8" standalone="no"?>
<svg width="256px" height="167px" viewBox="0 0 256 167" version="1.1" xmlns="http://www.w3.org/2000/svg" xmlns:xlink="http://www.w3.org/1999/xlink">
    <!-- Generator: Sketch 39.1 (31720) - http://www.bohemiancoding.com/sketch -->
    <title>CH_Logo2-black</title>
    <desc>Created with Sketch.</desc>
    <defs></defs>
    <g id="Page-1" stroke="none" stroke-width="1" fill="none" fill-rule="evenodd">
        <g id="CH_Logo2-black" fill="#4A4A4A">
            <path d="M0.0484,117.7478 C-0.5106,113.6668 3.8794,110.6928 7.4104,112.8138 C14.9914,117.3678 29.5534,122.3088 57.0474,122.3088 C98.1054,122.3088 135.1124,108.2128 147.9804,102.7168 C150.6044,101.5958 153.6224,102.9368 154.5574,105.6328 L166.3524,139.6428 C167.1844,142.0428 166.0604,144.6798 163.7494,145.7328 C151.7924,151.1778 114.9354,166.3088 74.5474,166.3088 C49.3394,166.3088 27.5454,161.2258 16.3804,150.9448 C5.2844,140.7278 1.3654,127.3688 0.0484,117.7478" id="Fill-1"></path>
            <path d="M96.8976,88.9153 C98.0916,88.9283 99.2446,88.4893 100.1326,87.6913 C106.9716,81.5473 139.3686,54.5593 180.7976,54.5593 C194.9066,54.5593 201.1566,57.5733 203.7856,59.6463 C205.1616,60.7303 207.0386,60.9303 208.6516,60.2503 L252.6146,41.7173 C254.8586,40.7713 256.0406,38.2973 255.3686,35.9563 L246.0346,3.4823 C245.2416,0.7243 242.2246,-0.7297 239.5736,0.3673 L196.0476,18.3773 C194.7076,18.9323 193.1976,18.8513 191.9206,18.1623 C188.5736,16.3573 180.6926,13.0593 167.7976,13.0593 C121.2976,13.0593 64.9296,55.3093 64.9296,75.5993 C64.9296,84.5433 75.9166,88.6833 96.8976,88.9153" id="Fill-4"></path>
        </g>
    </g>
</svg>