<?xml version="1.0" encoding="utf-8"?>
<!-- Generator: Adobe Illustrator 19.2.0, SVG Export Plug-In . SVG Version: 6.00 Build 0)  -->
<svg version="1.1" id="Layer_1" xmlns="http://www.w3.org/2000/svg" xmlns:xlink="http://www.w3.org/1999/xlink" x="0px" y="0px"
	 viewBox="0 0 552 642" style="enable-background:new 0 0 552 642;" xml:space="preserve">
<style type="text/css">
	.st0{fill:#FFFFFF;}
	.st1{fill:#4A4A4A;}
</style>
<title>CH_Logo</title>
<path onmouseover="evt.target.setAttribute('d', 'M211,248.1c1.6-15.2,3.9-29.9,6.9-44.1c6.2-28.8,17.3-52.7,33.1-71.9s37.4-28.8,64.7-28.8  c17.8,0,35.4,5.7,52.9,17c12.2,8,21.9,17.4,28.9,28.2s12.3,23.1,15.7,36.7s6.1,30.6,7.9,50.8h13.1c0-68.1,0.7-115.6,2.2-142.5h-13.1  c-1.9,22.6-6.7,34-14.5,34c-3.2,0-6.9-1.7-11.1-5c-15.2-11.7-30.8-20.8-46.9-27.3s-35.4-9.7-58-9.7c-41.9,0-79.2,8.9-111.7,26.7  c-19.9,10.9-37.1,24.5-51.7,40.7L211,248.1z" class="st0" d="
	M231,268.1c1.6-15.2,3.9-29.9,6.9-44.1c6.2-28.8,17.3-52.7,33.1-71.9s37.4-28.8,64.7-28.8c17.8,0,35.4,5.7,52.9,17
	c12.2,8,21.9,17.4,28.9,28.2s12.3,23.1,15.7,36.7s6.1,30.6,7.9,50.8h13.1c0-68.1,0.7-115.6,2.2-142.5h-13.1
	c-1.9,22.6-6.7,34-14.5,34c-3.2,0-6.9-1.7-11.1-5c-15.2-11.7-30.8-20.8-46.9-27.3s-35.4-9.7-58-9.7c-41.9,0-79.2,8.9-111.7,26.7
	c-19.9,10.9-37.1,24.5-51.7,40.7L231,268.1z"/>
<path onmouseover="evt.target.setAttribute('d', 'M388.8,455.9c3.3-3.6,6.2-7.5,8.8-11.5c7.1-11.1,12.3-24.2,15.7-39.1s6.1-33.7,7.9-56.4h13.1  c0,70.7,0.7,120,2.2,148.1h-12.6l-0.5-0.6c-0.9-11.6-2.4-20-4.5-25.2c-2.1-5.3-5.2-7.9-9.3-7.9c-2.8,0-6.4,1.4-10.9,4.2L388.8,455.9  z');" class="st0" d="
	M408.8,475.9c3.3-3.6,6.2-7.5,8.8-11.5c7.1-11.1,12.3-24.2,15.7-39.1s6.1-33.7,7.9-56.4h13.1c0,70.7,0.7,120,2.2,148.1h-12.6
	l-0.5-0.6c-0.9-11.6-2.4-20-4.5-25.2c-2.1-5.3-5.2-7.9-9.3-7.9c-2.8,0-6.4,1.4-10.9,4.2L408.8,475.9z"/>
<path onmouseover="evt.target.setAttribute('d', 'M211.1,247.3c-1.6,15.8-2.5,32.2-2.5,49.1c0,32.8,3.1,63.6,9.3,92.4s17.3,52.7,33.1,71.9s37.4,28.8,64.7,28.8  c17.8,0,35.4-5.7,52.9-17c7.9-4.9,14.8-10.6,20.5-17l10,11.7c-0.4,0.3-0.9,0.5-1.3,0.8c-11.3,8-21.8,14.5-31.3,19.6  s-20.5,9.3-32.7,12.5s-26.1,4.9-41.5,4.9c-43,0-80.7-8.2-113-24.5s-57.3-40-75.1-71.1s-26.7-68-26.7-110.9c0-41.9,9.1-79,27.4-111.3  c7.2-12.7,15.5-24.4,25-34.9L211.1,247.3z');" class="st0" d="
	M196.1,226.3c-1.6,15.8-2.5,32.2-2.5,49.1c0,32.8,3.1,63.6,9.3,92.4s17.3,52.7,33.1,71.9s37.4,28.8,64.7,28.8
	c17.8,0,35.4-5.7,52.9-17c7.9-4.9,14.8-10.6,20.5-17l10,11.7c-0.4,0.3-0.9,0.5-1.3,0.8c-11.3,8-21.8,14.5-31.3,19.6
	s-20.5,9.3-32.7,12.5s-26.1,4.9-41.5,4.9c-43,0-80.7-8.2-113-24.5s-57.3-40-75.1-71.1s-26.7-68-26.7-110.9c0-41.9,9.1-79,27.4-111.3
	c7.2-12.7,15.5-24.4,25-34.9L196.1,226.3z"/>
<path class="st1" d="M409.7,476h-1.2c0-0.5-0.1-1-0.1-1.5L409.7,476z"/>
<g id="Path-4">
	<path class="st0" d="M550,641.8c-0.6,0-1.1-0.2-1.5-0.7L1.4,4.1C0.7,3.3,0.8,2,1.6,1.3s2.1-0.6,2.8,0.2l547.1,637
		c0.7,0.8,0.6,2.1-0.2,2.8C550.9,641.7,550.4,641.8,550,641.8z"/>
</g>
</svg>
